# xmcd CD database file
#
# Track frame offsets:
#	150
#	24965
#	45766
#	61680
#	85073
#	109902
#	136914
#	156347
#	178402
#	196891
#	220017
#	240563
#
# Disc length: 3514 seconds
#
# Revision: 0
# Processed by: cddbd v1.4PL0 Copyright (c) Steve Scherf et al.
# Submitted via: Feurio! 1.65 - http://www.feurio.com
#
DISCID=940db80c
DTITLE=Emmylou Harris - Boston, October 17 2000 - Disc 1
DYEAR=1900
DGENRE=Country
TTITLE0=The pearl
TTITLE1=I don't want to talk about it
TTITLE2=Wayfaring stranger
TTITLE3=I ain't living long like this
TTITLE4=Wrecking ball
TTITLE5=Red dirt girl
TTITLE6=All I left behind
TTITLE7=My baby needs a shepherd
TTITLE8=One big love
TTITLE9=All my tears
TTITLE10=Love hurts
TTITLE11=Hour of gold
EXTD=
EXTT0=
EXTT1=
EXTT2=
EXTT3=
EXTT4=
EXTT5=
EXTT6=
EXTT7=
EXTT8=
EXTT9=
EXTT10=
EXTT11=
PLAYORDER=
